# xmcd
#
# Track frame offsets:
# 150
# 19331
# 41036
# 60570
# 76589
# 93402
# 111890
# 138599
# 151303
# 167199
# 181004
# 202476
# 214422
# 232140
# 247807
# 266616
# 280257
# 283933
# 300787
# 319177
#
# Disc length: 4564 seconds
#
# Revision: 0
# Processed by: cddbd v1.5.2PL0 Copyright (c) Steve Scherf et al.
# Submitted via: Audion 3.0.2 (http://www.panic.com/audion/)
#
DISCID=2211d214
DTITLE=R&B REMIX - R&B 
DYEAR=1900
DGENRE=
TTITLE0=BUDDY MUSIC
TTITLE1=THATS THAT SHIT R-KELLY NAS
TTITLE2=LOYD
TTITLE3=MARY
TTITLE4=LUDA
TTITLE5=NAS
TTITLE6=KEISHA
TTITLE7=RAZAH
TTITLE8=JOHN LEGEND
TTITLE9=CIERA - TAKEN IT BACK
TTITLE10=BEYONCE - UPGRADE - GHOST
TTITLE11=SWIZZ
TTITLE12=RED CAFE FT FAB DIDDY BOP
TTITLE13=JEEZY - GO GETTA
TTITLE14=KANYE 
TTITLE15=NORE
TTITLE16=INTERLUDE
TTITLE17=MARY
TTITLE18=MARIO
TTITLE19=CIERA FT BUSTA
EXTD=
EXTT0=
EXTT1=
EXTT2=
EXTT3=
EXTT4=
EXTT5=
EXTT6=
EXTT7=
EXTT8=
EXTT9=
EXTT10=
EXTT11=
EXTT12=
EXTT13=
EXTT14=
EXTT15=
EXTT16=
EXTT17=
EXTT18=
EXTT19=
PLAYORDER=
